<svg xmlns="http://www.w3.org/2000/svg" viewBox="0 0 64 64">
  <rect width="64" height="64" rx="16" fill="#f26f3d" />
  <path d="M24 16v21.6a11.1 11.1 0 0 1 5.5-1.4c5.7 0 10.5 3.3 10.5 8.3S35.2 53 28.6 53c-6.1 0-10.6-3.4-10.6-8 0-3.7 2.8-6.8 7-8V16h-1Z" fill="#fff6ea"/>
  <path d="M36.8 13c5.8 0 10.8 4.4 11.6 10.1l.1 1c0 3.8-1.6 6.8-4.2 9l-1.9 1.5c3.4 1.5 5.8 4.9 5.8 8.8C48.2 49.2 43 54 36.4 54c-4.9 0-9.1-2.7-10.9-6.5 5.6-.1 10.4-3.3 12.2-8.1l.5-1.5c4.1-.5 7.3-3.8 7.3-7.9 0-4.5-3.7-8.1-8.2-8.1-2.4 0-4.5 1-6.1 2.7V15.6a10.6 10.6 0 0 1 5.6-2.6Z" fill="#ffe4b6"/>
</svg>
