<svg xmlns="http://www.w3.org/2000/svg" viewBox="0 0 192 192">
  <rect width="192" height="192" rx="44" fill="#fff6ea" />
  <rect x="18" y="18" width="156" height="156" rx="34" fill="#f26f3d" />
  <path d="M61 54v63.5c7.2-6.1 17.8-8.8 27.5-6.4 8.8 2.2 15.2 8.2 15.2 16.2 0 11-11.7 19.7-27 19.7-14.5 0-25.7-7.6-25.7-18.4 0-8.2 6.1-15 15-18.2V54h-5Z" fill="#fff6ea"/>
  <path d="M94 47c17.4 0 31.9 13 34.1 29.8l.2 2.7c0 10.5-4.4 18.1-11.5 24.3l-4.5 3.6c9.2 4 15.7 12.7 15.7 22.4 0 13.4-12.3 24.2-27.5 24.2-11.1 0-20.6-5.7-24.8-13.9 13.2-.2 24.6-7.6 28.9-18.4l1.2-3.6c9.8-1 17.4-8.9 17.4-18.5 0-10.2-8.5-18.5-19-18.5-5.5 0-10.6 2.3-14.2 6.4V52.8c4-3.7 9.4-5.8 15-5.8Z" fill="#ffe4b6"/>
</svg>
