<svg xmlns="http://www.w3.org/2000/svg" viewBox="0 0 512 512">
  <rect width="512" height="512" rx="120" fill="#fff6ea" />
  <rect x="48" y="48" width="416" height="416" rx="96" fill="#f26f3d" />
  <path d="M161 143v169.4c19.1-16.3 47.2-23.4 72.9-17 23.4 5.8 40.2 21.8 40.2 43.1 0 29.2-31.1 52.2-71.4 52.2-38.4 0-68.1-20.1-68.1-48.8 0-21.6 16.1-39.7 39.8-48.2V143h-13.4Z" fill="#fff6ea"/>
  <path d="M248.9 124c46.1 0 84.5 34.5 90.3 79l.5 7.1c0 27.7-11.6 48.1-30.4 64.5l-11.9 9.6c24.3 10.6 41.6 33.7 41.6 59.4 0 35.5-32.6 64.1-72.8 64.1-29.3 0-54.5-15.1-65.7-36.9 34.9-.5 65-20.1 76.4-48.8l3.2-9.6c25.9-2.7 45.8-23.6 45.8-49 0-26.8-22.4-48.9-50.2-48.9-14.6 0-27.9 6.2-37.6 16.9V139.2c10.6-9.8 24.7-15.2 39.8-15.2Z" fill="#ffe4b6"/>
</svg>
